# xmcd
#
# Track frame offsets:
#	150
#	19272
#	38761
#	57357
#	71391
#	87125
#	109495
#	128882
#	142666
#	159063
#	176931
#	192289
#
# Disc length: 2777 seconds
#
# Revision: 0
# Processed by: cddbd v1.5.2PL0 Copyright (c) Steve Scherf et al.
# Submitted via: EasyCDDAExtractor 16.0.8.2
#
DISCID=9c0ad70c
DTITLE=Pino Daniele - SonyMusic_01
DYEAR=1900
DGENRE=Blues
TTITLE0=Il sole dentro di me
TTITLE1=Tempo di cambiare
TTITLE2=Vento di passione
TTITLE3=A me me piace 'o Blues
TTITLE4=Bach Home
TTITLE5=Gente di frontiera
TTITLE6=Rhum and Coca
TTITLE7=Je so' pazzo
TTITLE8=Anema e core
TTITLE9=Napule è..
TTITLE10=Boogie Boogie Man
TTITLE11='na Tazzulella e caffè
EXTD=
EXTT0=
EXTT1=
EXTT2=
EXTT3=
EXTT4=
EXTT5=
EXTT6=
EXTT7=
EXTT8=
EXTT9=
EXTT10=
EXTT11=
PLAYORDER=
